<svg xmlns="http://www.w3.org/2000/svg" width="1251.264" height="246.96" viewBox="0 0 1251.264 246.96">
  <defs>
    <style>
      .cls-1 {
        fill: #ecf0f1;
      }
    </style>
  </defs>
  <path id="パス_1" data-name="パス 1" class="cls-1" d="M99.127-243.53h33.614L228.781,0H188.307L162.582-66.2H68.6L43.218,0H2.4ZM155.036-94.668l-39.1-104.615L75.46-94.668Zm312.473,31.9a56.871,56.871,0,0,1-6,26.411,60.036,60.036,0,0,1-16.121,19.722A72.551,72.551,0,0,1,421.547-4.287,97.2,97.2,0,0,1,392.392,0H276.115V-243.53H401.653a48.058,48.058,0,0,1,22.981,5.488,57.375,57.375,0,0,1,17.493,14.235,65.234,65.234,0,0,1,11.147,19.894,66.936,66.936,0,0,1,3.945,22.467A65.353,65.353,0,0,1,448.13-148a55.489,55.489,0,0,1-25.9,23.153q20.923,6.174,33.1,22.466T467.509-62.769Zm-39.445-7.2a40.689,40.689,0,0,0-2.573-14.406,41.123,41.123,0,0,0-6.86-12,32.174,32.174,0,0,0-10.462-8.232,29.493,29.493,0,0,0-13.377-3.087H314.531v74.431h77.861a34.04,34.04,0,0,0,14.063-2.916,35.992,35.992,0,0,0,11.319-7.889,36.6,36.6,0,0,0,7.546-11.662A37.134,37.134,0,0,0,428.064-69.972ZM314.531-210.259v71.687h70.658a31.385,31.385,0,0,0,13.205-2.744,36.192,36.192,0,0,0,10.633-7.374,32.334,32.334,0,0,0,7.2-11.148,38.916,38.916,0,0,0,2.572-14.406q0-15.778-8.918-25.9a28.855,28.855,0,0,0-22.638-10.118ZM625.975,1.715q-26.068,0-47.505-10.461A118.36,118.36,0,0,1,541.6-36.529a125.513,125.513,0,0,1-23.839-39.617,128.361,128.361,0,0,1-8.4-45.619,124.453,124.453,0,0,1,8.918-46.648A129.5,129.5,0,0,1,542.8-207.858a117.143,117.143,0,0,1,37.044-27.269,108.291,108.291,0,0,1,46.82-10.118q26.068,0,47.505,10.8a119.563,119.563,0,0,1,36.7,28.3,129.88,129.88,0,0,1,23.667,39.617,126.072,126.072,0,0,1,8.4,45.1,126.6,126.6,0,0,1-8.746,46.648A123.175,123.175,0,0,1,709.667-35.5,120.472,120.472,0,0,1,672.452-8.4,107.5,107.5,0,0,1,625.975,1.715Zm-77.518-123.48a102.545,102.545,0,0,0,5.488,33.271,90.429,90.429,0,0,0,15.607,28.469A76.279,76.279,0,0,0,594.076-40.3a69.719,69.719,0,0,0,32.242,7.375q18.522,0,32.757-7.717a77.064,77.064,0,0,0,24.181-20.409,91.963,91.963,0,0,0,15.092-28.469,103.371,103.371,0,0,0,5.145-32.242,102.059,102.059,0,0,0-5.488-33.442A88.7,88.7,0,0,0,682.4-183.333a77.933,77.933,0,0,0-24.353-19.551,67.933,67.933,0,0,0-31.728-7.374q-18.522,0-32.928,7.717a78.474,78.474,0,0,0-24.353,20.066,90.047,90.047,0,0,0-15.263,28.3A101.88,101.88,0,0,0,548.457-121.765ZM901.4-32.928q19.208,0,31.9-7.546A60.2,60.2,0,0,0,953.711-60.2a83.137,83.137,0,0,0,10.976-27.783,156.505,156.505,0,0,0,3.258-32.07V-243.53H1006.7v123.48a184.433,184.433,0,0,1-5.831,47.162,108.853,108.853,0,0,1-18.522,38.759A88.457,88.457,0,0,1,949.6-7.889q-20.066,9.6-48.191,9.6-29.155,0-49.221-10.118A88.632,88.632,0,0,1,819.77-35.5a111.354,111.354,0,0,1-17.836-38.931,187.4,187.4,0,0,1-5.488-45.619V-243.53h38.416v123.48a158.214,158.214,0,0,0,3.258,32.413A83.134,83.134,0,0,0,849.1-59.854,58.225,58.225,0,0,0,869.676-40.3Q882.539-32.928,901.4-32.928Zm352.261-176.645h-80.948V0h-38.759V-209.573h-81.291V-243.53h201Z" transform="translate(-2.401 245.245)"/>
</svg>
